# xmcd
#
# Track frame offsets:
#	150
#	17822
#	34387
#	46362
#	66492
#	83270
#	94622
#	112080
#	129485
#	147130
#	161250
#	178765
#	191662
#	203512
#	218865
#
# Disc length: 3086 seconds
#
# Revision: 1
# Processed by: cddbd v1.5.2PL0 Copyright (c) Steve Scherf et al.
# Submitted via: audiograbber 1.83.01
#
DISCID=ce0c0c0f
DTITLE=Sound Choice - Country Hits VOL. 52
DYEAR=1900
DGENRE=
TTITLE0=Linda Davis  - Love story in the making
TTITLE1=Ricky Skaggs - Back where we belong
TTITLE2=Doug Supernaw - She never looks back
TTITLE3=John Michael Montgomery - Long as I live
TTITLE4=Lari White - The test
TTITLE5=Ty Herndon - In your face
TTITLE6=Mindy McCready - Ten thousand angels
TTITLE7=Bryan White - I'm not supposed to love you anymore
TTITLE8=Keith Gattis - Little drops of my heart
TTITLE9=Clay Walker - I won't have the heart
TTITLE10=Collin Raye - Love remains
TTITLE11=Joe Diffie - C-O-U-N-T-R-Y
TTITLE12=Lisa Brokop - Before he kissed me
TTITLE13=John Anderson - Long hard lesson learned
TTITLE14=Rhonda Vincent - What more do you want from me
EXTD=
EXTT0=
EXTT1=
EXTT2=
EXTT3=
EXTT4=
EXTT5=
EXTT6=
EXTT7=
EXTT8=
EXTT9=
EXTT10=
EXTT11=
EXTT12=
EXTT13=
EXTT14=
PLAYORDER=
